<svg xmlns="http://www.w3.org/2000/svg" version="1.1" xmlns:xlink="http://www.w3.org/1999/xlink" xmlns:svgjs="http://svgjs.dev/svgjs" width="128" height="128" viewBox="0 0 128 128"><g transform="matrix(0.8046875,0,0,0.8046875,12.506335372881367,52.092361347755606)"><svg viewBox="0 0 59 14" data-background-color="#052e2e" preserveAspectRatio="xMidYMid meet" height="30" width="128" xmlns="http://www.w3.org/2000/svg" xmlns:xlink="http://www.w3.org/1999/xlink"><g id="tight-bounds" transform="matrix(1,0,0,1,-0.003629000000003657,-0.0943403026466143)"><svg viewBox="0 0 59.00725799999999 14.188680605293223" height="14.188680605293223" width="59.00725799999999"><g><svg viewBox="0 0 59.00725799999999 14.188680605293223" height="14.188680605293223" width="59.00725799999999"><g><svg viewBox="0 0 59.00725799999999 14.188680605293223" height="14.188680605293223" width="59.00725799999999"><g><svg viewBox="0 0 59.00725799999999 14.188680605293223" height="14.188680605293223" width="59.00725799999999"><g id="textblocktransform"><svg viewBox="0 0 59.00725799999999 14.188680605293223" height="14.188680605293223" width="59.00725799999999" id="textblock"><g><svg viewBox="0 0 59.00725799999999 14.188680605293223" height="14.188680605293223" width="59.00725799999999"><g><svg viewBox="0 0 59.00725799999999 14.188680605293223" height="14.188680605293223" width="59.00725799999999"><g><svg xmlns="http://www.w3.org/2000/svg" xmlns:xlink="http://www.w3.org/1999/xlink" version="1.1" x="0" y="0" viewBox="7.549000000000001 39.792 84.901 20.415" enable-background="new 0 0 100 100" xml:space="preserve" height="14.188680605293223" width="59.00725799999999" class="icon-icon-0" data-fill-palette-color="accent" id="icon-0"><path d="M88.562 39.792H11.438c-2.148 0-3.889 1.741-3.889 3.889v12.638c0 2.147 1.741 3.888 3.889 3.888h77.123c2.147 0 3.888-1.74 3.889-3.888V43.681C92.45 41.534 90.709 39.792 88.562 39.792zM85.97 40.765h0.972v12.638H85.97V40.765zM83.539 40.765h0.972v6.319h-0.972V40.765zM81.108 40.765h0.973v6.319h-0.973V40.765zM78.679 40.765h0.972v6.319h-0.972V40.765zM76.248 40.765h0.972v6.319h-0.972V40.765zM73.817 40.765h0.973V50h-0.973V40.765zM71.387 40.765h0.973v6.319h-0.973V40.765zM68.957 40.765h0.972v6.319h-0.972V40.765zM66.526 40.765h0.973v6.319h-0.973V40.765zM64.096 40.765h0.973v6.319h-0.973V40.765zM61.666 40.765h0.972v12.638h-0.972V40.765zM59.235 40.765h0.972v6.319h-0.972V40.765zM56.805 40.765h0.973v6.319h-0.973V40.765zM54.375 40.765h0.972v6.319h-0.972V40.765zM51.944 40.765h0.972v6.319h-0.972V40.765zM49.514 40.765h0.972V50h-0.972V40.765zM47.083 40.765h0.972v6.319h-0.972V40.765zM44.653 40.765h0.972v6.319h-0.972V40.765zM42.223 40.765h0.972v6.319h-0.972V40.765zM39.792 40.765h0.972v6.319h-0.972V40.765zM37.362 40.765h0.972v12.638h-0.972V40.765zM34.932 40.765h0.972v6.319h-0.972V40.765zM32.501 40.765h0.972v6.319h-0.972V40.765zM30.071 40.765h0.972v6.319h-0.972V40.765zM27.641 40.765h0.972v6.319h-0.972V40.765zM25.21 40.765h0.972V50H25.21V40.765zM22.78 40.765h0.972v6.319H22.78V40.765zM20.35 40.765h0.972v6.319H20.35V40.765zM17.919 40.765h0.972v6.319h-0.972V40.765zM15.489 40.765h0.972v6.319h-0.972V40.765zM13.059 40.765h0.972v12.638h-0.972V40.765z" fill="#ffffff" data-fill-palette-color="accent"></path></svg></g></svg></g></svg></g></svg></g></svg></g></svg></g></svg></g><defs></defs></svg><rect width="59.00725799999999" height="14.188680605293223" fill="none" stroke="none" visibility="hidden"></rect></g></svg></g></svg>