<svg xmlns="http://www.w3.org/2000/svg" version="1.1" xmlns:xlink="http://www.w3.org/1999/xlink" xmlns:svgjs="http://svgjs.dev/svgjs" width="2000" height="156" viewBox="0 0 2000 156"><g transform="matrix(1,0,0,1,-1.2121212121212466,0.5804222577695697)"><svg viewBox="0 0 396 31" data-background-color="#052e2e" preserveAspectRatio="xMidYMid meet" height="156" width="2000" xmlns="http://www.w3.org/2000/svg" xmlns:xlink="http://www.w3.org/1999/xlink"><g id="tight-bounds" transform="matrix(1,0,0,1,0.2400000000000091,-0.11534032045420872)"><svg viewBox="0 0 395.52 31.23068064090839" height="31.23068064090839" width="395.52"><g><svg viewBox="0 0 395.52 31.23068064090839" height="31.23068064090839" width="395.52"><g><svg viewBox="0 0 603.3289949621092 47.63950031113941" height="31.23068064090839" width="395.52"><g transform="matrix(1,0,0,1,0,3.3010486915340564)"><svg viewBox="0 0 395.52 41.037402928071295" height="41.037402928071295" width="395.52"><g id="textblocktransform"><svg viewBox="0 0 395.52 41.037402928071295" height="41.037402928071295" width="395.52" id="textblock"><g><svg viewBox="0 0 395.52 41.037402928071295" height="41.037402928071295" width="395.52"><g transform="matrix(1,0,0,1,0,0)"><svg width="395.52" viewBox="4.7 -32.15 314.18 32.6" height="41.037402928071295" data-palette-color="#ffffff"><path d="M29.5-32.15L29.25-9.4 29.35 0 25.15 0 8.55-25.65 8.3-25.65 8.25-10.55 8.3 0 4.7 0 4.85-9.5 4.75-32.05 8.9-32.05 25.45-6.4 25.8-6.4 25.75-31.85 29.5-32.15ZM56.85-3.5L57.1-3.1 56.8 0 38.8 0 39.05-9.65 38.8-32.05 56.85-32.05 57.05-31.65 56.75-28.55 49.2-28.7 42.85-28.6 42.75-18.1 48.75-18 54.05-18.15 54.35-17.8 54-14.7 48.4-14.8 42.7-14.75 42.65-10 42.8-3.35 49.15-3.3 56.85-3.5ZM72.9-11.6L72.84-9.35 72.95 0 69 0 69.2-9.35 69.15-11.45 59-32.05 63.3-32.05 63.95-30.25 70.95-15.85 71.3-15.85 79-30.15 79.75-32.05 83.95-32.05 72.9-11.6ZM117.89-32.05L121.04 0 117.44 0 116.69-9.75 114.99-25.7 114.64-25.7 105.74-3.7 102.44-3.7 93.99-25.7 93.59-25.7 91.89-10.05 91.04 0 87.64 0 90.99-32.05 95.54-32.05 97.19-27.15 104.14-8.9 104.44-8.9 111.74-27.45 113.39-32.05 117.89-32.05ZM141.19-32.05L151.89 0 147.79 0 147.04-3.2 145.24-8.7 138.04-8.85 131.54-8.7 129.59-3.4 128.79 0 124.79 0 136.54-32.05 141.19-32.05ZM138.39-12L144.14-12.1 138.94-27.9 138.59-27.9 132.79-12.1 138.39-12ZM170.69-12.95Q173.99-7.5 178.99-0.95L178.99-0.95 178.94-0.45Q177.14 0.25 175.24 0.45L175.24 0.45 174.69 0.1Q170.59-6.05 167.34-11.9L167.34-11.9 161.49-11.9 161.49-10 161.69 0 157.64 0 157.89-9.65 157.64-32.05 167.44-32.1Q172.14-32.1 174.71-29.73 177.29-27.35 177.29-22.95L177.29-22.95Q177.29-19.65 175.56-17.03 173.84-14.4 170.69-12.95L170.69-12.95ZM161.69-28.65L161.54-15.3 167.54-15.15Q173.14-16.75 173.14-22.6L173.14-22.6Q173.14-25.65 171.49-27.18 169.84-28.7 166.54-28.8L166.54-28.8 161.69-28.65ZM213.99-32.05L217.14 0 213.54 0 212.79-9.75 211.09-25.7 210.74-25.7 201.84-3.7 198.54-3.7 190.09-25.7 189.69-25.7 187.99-10.05 187.14 0 183.74 0 187.09-32.05 191.64-32.05 193.29-27.15 200.24-8.9 200.54-8.9 207.84-27.45 209.49-32.05 213.99-32.05ZM242.88-3.5L243.13-3.1 242.83 0 224.83 0 225.08-9.65 224.83-32.05 242.88-32.05 243.08-31.65 242.78-28.55 235.23-28.7 228.88-28.6 228.78-18.1 234.78-18 240.08-18.15 240.38-17.8 240.03-14.7 234.43-14.8 228.73-14.75 228.68-10 228.83-3.35 235.18-3.3 242.88-3.5ZM267.43-32.05L267.73-31.65 267.43-28.55 261.83-28.85 258.58-28.85 258.43-10 258.58 0 254.53 0 254.83-9.65 254.58-28.85 251.33-28.85 245.63-28.55 245.38-28.95 245.68-32.05 267.43-32.05ZM291.48-3.5L291.73-3.1 291.43 0 273.43 0 273.68-9.65 273.43-32.05 291.48-32.05 291.68-31.65 291.38-28.55 283.83-28.7 277.48-28.6 277.38-18.1 283.38-18 288.68-18.15 288.98-17.8 288.63-14.7 283.03-14.8 277.33-14.75 277.28-10 277.43-3.35 283.78-3.3 291.48-3.5ZM310.57-12.95Q313.88-7.5 318.88-0.95L318.88-0.95 318.82-0.45Q317.02 0.25 315.13 0.45L315.13 0.45 314.57 0.1Q310.48-6.05 307.23-11.9L307.23-11.9 301.38-11.9 301.38-10 301.57 0 297.52 0 297.77-9.65 297.52-32.05 307.32-32.1Q312.02-32.1 314.6-29.73 317.18-27.35 317.18-22.95L317.18-22.95Q317.18-19.65 315.45-17.03 313.73-14.4 310.57-12.95L310.57-12.95ZM301.57-28.65L301.43-15.3 307.43-15.15Q313.02-16.75 313.02-22.6L313.02-22.6Q313.02-25.65 311.38-27.18 309.73-28.7 306.43-28.8L306.43-28.8 301.57-28.65Z" opacity="1" transform="matrix(1,0,0,1,0,0)" fill="#ffffff" class="wordmark-text-0" data-fill-palette-color="primary" id="text-0"></path></svg></g></svg></g></svg></g></svg></g><g transform="matrix(1,0,0,1,405.20794593364735,0)"><svg viewBox="0 0 198.12104902846178 47.63950031113941" height="47.63950031113941" width="198.12104902846178"><g><svg xmlns="http://www.w3.org/2000/svg" xmlns:xlink="http://www.w3.org/1999/xlink" version="1.1" x="0" y="0" viewBox="7.549000000000001 39.792 84.901 20.415" enable-background="new 0 0 100 100" xml:space="preserve" height="47.63950031113941" width="198.12104902846178" class="icon-icon-0" data-fill-palette-color="accent" id="icon-0"><path d="M88.562 39.792H11.438c-2.148 0-3.889 1.741-3.889 3.889v12.638c0 2.147 1.741 3.888 3.889 3.888h77.123c2.147 0 3.888-1.74 3.889-3.888V43.681C92.45 41.534 90.709 39.792 88.562 39.792zM85.97 40.765h0.972v12.638H85.97V40.765zM83.539 40.765h0.972v6.319h-0.972V40.765zM81.108 40.765h0.973v6.319h-0.973V40.765zM78.679 40.765h0.972v6.319h-0.972V40.765zM76.248 40.765h0.972v6.319h-0.972V40.765zM73.817 40.765h0.973V50h-0.973V40.765zM71.387 40.765h0.973v6.319h-0.973V40.765zM68.957 40.765h0.972v6.319h-0.972V40.765zM66.526 40.765h0.973v6.319h-0.973V40.765zM64.096 40.765h0.973v6.319h-0.973V40.765zM61.666 40.765h0.972v12.638h-0.972V40.765zM59.235 40.765h0.972v6.319h-0.972V40.765zM56.805 40.765h0.973v6.319h-0.973V40.765zM54.375 40.765h0.972v6.319h-0.972V40.765zM51.944 40.765h0.972v6.319h-0.972V40.765zM49.514 40.765h0.972V50h-0.972V40.765zM47.083 40.765h0.972v6.319h-0.972V40.765zM44.653 40.765h0.972v6.319h-0.972V40.765zM42.223 40.765h0.972v6.319h-0.972V40.765zM39.792 40.765h0.972v6.319h-0.972V40.765zM37.362 40.765h0.972v12.638h-0.972V40.765zM34.932 40.765h0.972v6.319h-0.972V40.765zM32.501 40.765h0.972v6.319h-0.972V40.765zM30.071 40.765h0.972v6.319h-0.972V40.765zM27.641 40.765h0.972v6.319h-0.972V40.765zM25.21 40.765h0.972V50H25.21V40.765zM22.78 40.765h0.972v6.319H22.78V40.765zM20.35 40.765h0.972v6.319H20.35V40.765zM17.919 40.765h0.972v6.319h-0.972V40.765zM15.489 40.765h0.972v6.319h-0.972V40.765zM13.059 40.765h0.972v12.638h-0.972V40.765z" fill="#ffffff" data-fill-palette-color="accent"></path></svg></g></svg></g></svg></g></svg></g><defs></defs></svg><rect width="395.52" height="31.23068064090839" fill="none" stroke="none" visibility="hidden"></rect></g></svg></g></svg>